<svg xmlns="http://www.w3.org/2000/svg" xmlns:xlink="http://www.w3.org/1999/xlink" width="152" height="152" viewBox="0 0 152 152"><defs><linearGradient id="a" x1="0.987" y1="0.981" x2="0.055" y2="0.066" gradientUnits="objectBoundingBox"><stop offset="0" stop-color="#fff"/><stop offset="1" stop-color="#f5f5f7"/></linearGradient><filter id="b" x="-19.5" y="-22.5" width="191" height="118.378" filterUnits="userSpaceOnUse"><feOffset dy="-3" input="SourceAlpha"/><feGaussianBlur stdDeviation="6.5" result="c"/><feFlood flood-opacity="0.141"/><feComposite operator="in" in2="c"/><feComposite in="SourceGraphic"/></filter><filter id="e" x="-19.5" y="14.093" width="191" height="118.378" filterUnits="userSpaceOnUse"><feOffset dy="-3" input="SourceAlpha"/><feGaussianBlur stdDeviation="6.5" result="f"/><feFlood flood-opacity="0.141"/><feComposite operator="in" in2="f"/><feComposite in="SourceGraphic"/></filter><filter id="h" x="-19.5" y="50.122" width="191" height="118.378" filterUnits="userSpaceOnUse"><feOffset dy="-3" input="SourceAlpha"/><feGaussianBlur stdDeviation="6.5" result="i"/><feFlood flood-opacity="0.141"/><feComposite operator="in" in2="i"/><feComposite in="SourceGraphic"/></filter><clipPath id="k"><rect width="152" height="152"/></clipPath></defs><g id="j" clip-path="url(#k)"><g transform="matrix(1, 0, 0, 1, 0, 0)" filter="url(#b)"><path d="M7.881,0H144.119A7.881,7.881,0,0,1,152,7.881V71.5a7.881,7.881,0,0,1-7.881,7.881H7.881A7.881,7.881,0,0,1,0,71.5V7.881A7.881,7.881,0,0,1,7.881,0Z" fill="url(#a)"/></g><path d="M5.63,0H34.341a5.63,5.63,0,0,1,5.63,5.63V33.215a5.63,5.63,0,0,1-5.63,5.63H5.63A5.63,5.63,0,0,1,0,33.215V5.63A5.63,5.63,0,0,1,5.63,0Z" transform="translate(20.267 20.267)" fill="#f1c40f"/><path d="M-8318.747-1240.156a2.252,2.252,0,0,1-2.253-2.251v-2.252a2.252,2.252,0,0,1,2.253-2.251h29.272a2.252,2.252,0,0,1,2.253,2.251v2.252a2.252,2.252,0,0,1-2.253,2.251Zm0-10.7A2.253,2.253,0,0,1-8321-1253.1v-2.251a2.252,2.252,0,0,1,2.253-2.251h53.48a2.252,2.252,0,0,1,2.252,2.251v2.251a2.253,2.253,0,0,1-2.252,2.252Zm0-10.7A2.252,2.252,0,0,1-8321-1263.8v-2.251a2.253,2.253,0,0,1,2.253-2.252h53.48a2.253,2.253,0,0,1,2.252,2.252v2.251a2.252,2.252,0,0,1-2.252,2.251Zm0-10.7A2.252,2.252,0,0,1-8321-1274.5v-2.252a2.252,2.252,0,0,1,2.253-2.251h53.48a2.252,2.252,0,0,1,2.252,2.251v2.252a2.252,2.252,0,0,1-2.252,2.251Z" transform="translate(8394.748 1299.266)" fill="#444" opacity="0.53"/><g transform="matrix(1, 0, 0, 1, 0, 0)" filter="url(#e)"><path d="M7.881,0H144.119A7.881,7.881,0,0,1,152,7.881V71.5a7.881,7.881,0,0,1-7.881,7.881H7.881A7.881,7.881,0,0,1,0,71.5V7.881A7.881,7.881,0,0,1,7.881,0Z" transform="translate(0 36.59)" fill="url(#a)"/></g><path d="M5.63,0H34.341a5.63,5.63,0,0,1,5.63,5.63V33.215a5.63,5.63,0,0,1-5.63,5.63H5.63A5.63,5.63,0,0,1,0,33.215V5.63A5.63,5.63,0,0,1,5.63,0Z" transform="translate(20.267 56.859)" fill="#ff4757"/><path d="M-8318.747-1240.156a2.252,2.252,0,0,1-2.253-2.251v-2.252a2.252,2.252,0,0,1,2.253-2.251h29.272a2.252,2.252,0,0,1,2.253,2.251v2.252a2.252,2.252,0,0,1-2.253,2.251Zm0-10.7A2.253,2.253,0,0,1-8321-1253.1v-2.251a2.252,2.252,0,0,1,2.253-2.251h53.48a2.252,2.252,0,0,1,2.252,2.251v2.251a2.253,2.253,0,0,1-2.252,2.252Zm0-10.7A2.252,2.252,0,0,1-8321-1263.8v-2.251a2.253,2.253,0,0,1,2.253-2.252h53.48a2.253,2.253,0,0,1,2.252,2.252v2.251a2.252,2.252,0,0,1-2.252,2.251Zm0-10.7A2.252,2.252,0,0,1-8321-1274.5v-2.252a2.252,2.252,0,0,1,2.253-2.251h53.48a2.252,2.252,0,0,1,2.252,2.251v2.252a2.252,2.252,0,0,1-2.252,2.251Z" transform="translate(8394.748 1335.859)" fill="#444" opacity="0.53"/><g transform="matrix(1, 0, 0, 1, 0, 0)" filter="url(#h)"><path d="M7.881,0H144.119A7.881,7.881,0,0,1,152,7.881V71.5a7.881,7.881,0,0,1-7.881,7.881H7.881A7.881,7.881,0,0,1,0,71.5V7.881A7.881,7.881,0,0,1,7.881,0Z" transform="translate(0 72.62)" fill="url(#a)"/></g><path d="M5.63,0H34.341a5.63,5.63,0,0,1,5.63,5.63V33.215a5.63,5.63,0,0,1-5.63,5.63H5.63A5.63,5.63,0,0,1,0,33.215V5.63A5.63,5.63,0,0,1,5.63,0Z" transform="translate(20.267 92.889)" fill="#08f"/><path d="M-8318.747-1240.156a2.252,2.252,0,0,1-2.253-2.251v-2.252a2.252,2.252,0,0,1,2.253-2.251h29.272a2.252,2.252,0,0,1,2.253,2.251v2.252a2.252,2.252,0,0,1-2.253,2.251Zm0-10.7A2.253,2.253,0,0,1-8321-1253.1v-2.251a2.252,2.252,0,0,1,2.253-2.251h53.48a2.252,2.252,0,0,1,2.252,2.251v2.251a2.253,2.253,0,0,1-2.252,2.252Zm0-10.7A2.252,2.252,0,0,1-8321-1263.8v-2.251a2.253,2.253,0,0,1,2.253-2.252h53.48a2.253,2.253,0,0,1,2.252,2.252v2.251a2.252,2.252,0,0,1-2.252,2.251Zm0-10.7A2.252,2.252,0,0,1-8321-1274.5v-2.252a2.252,2.252,0,0,1,2.253-2.251h53.48a2.252,2.252,0,0,1,2.252,2.251v2.252a2.252,2.252,0,0,1-2.252,2.251Z" transform="translate(8394.748 1371.889)" fill="#444" opacity="0.53"/></g></svg>