<svg xmlns="http://www.w3.org/2000/svg" xmlns:xlink="http://www.w3.org/1999/xlink" width="152" height="152" viewBox="0 0 152 152"><defs><linearGradient id="a" x1="0.987" y1="0.981" x2="0.055" y2="0.066" gradientUnits="objectBoundingBox"><stop offset="0" stop-color="#fff"/><stop offset="1" stop-color="#f5f5f7"/></linearGradient><filter id="b" x="3" y="0" width="146" height="85" filterUnits="userSpaceOnUse"><feOffset dy="-3" input="SourceAlpha"/><feGaussianBlur stdDeviation="3" result="c"/><feFlood flood-opacity="0.078"/><feComposite operator="in" in2="c"/><feComposite in="SourceGraphic"/></filter><filter id="e" x="3" y="30" width="146" height="85" filterUnits="userSpaceOnUse"><feOffset dy="-3" input="SourceAlpha"/><feGaussianBlur stdDeviation="3" result="f"/><feFlood flood-opacity="0.078"/><feComposite operator="in" in2="f"/><feComposite in="SourceGraphic"/></filter><filter id="h" x="3" y="61" width="146" height="85" filterUnits="userSpaceOnUse"><feOffset dy="-3" input="SourceAlpha"/><feGaussianBlur stdDeviation="3" result="i"/><feFlood flood-opacity="0.078"/><feComposite operator="in" in2="i"/><feComposite in="SourceGraphic"/></filter><clipPath id="k"><rect width="152" height="152"/></clipPath></defs><g id="j" clip-path="url(#k)"><g transform="translate(-7 -7)"><g transform="translate(19 19)"><g transform="matrix(1, 0, 0, 1, -12, -12)" filter="url(#b)"><rect width="128" height="67" rx="7" transform="translate(12 12)" fill="url(#a)"/></g><rect width="34" height="34" rx="8" transform="translate(14 14)" fill="#f1c40f"/><g transform="translate(61.881 15.116)" opacity="0.24"><rect width="49" height="5" rx="2" transform="translate(0.119 -0.116)" opacity="0.53"/><rect width="49" height="5" rx="2" transform="translate(0.119 8.884)" opacity="0.53"/><rect width="49" height="5" rx="2" transform="translate(0.119 16.884)" opacity="0.53"/><rect width="28" height="5" rx="2" transform="translate(0.119 24.884)" opacity="0.53"/></g></g><g transform="translate(19 49.232)"><g transform="matrix(1, 0, 0, 1, -12, -42.23)" filter="url(#e)"><rect width="128" height="67" rx="7" transform="translate(12 42)" fill="url(#a)"/></g><rect width="34" height="33" rx="8" transform="translate(14 14.768)" fill="#ff4757"/><g transform="translate(61.881 15.116)" opacity="0.24"><rect width="49" height="6" rx="2" transform="translate(0.119 -0.348)" opacity="0.53"/><rect width="49" height="6" rx="2" transform="translate(0.119 8.652)" opacity="0.53"/><rect width="49" height="5" rx="2" transform="translate(0.119 17.652)" opacity="0.53"/><rect width="28" height="5" rx="2" transform="translate(0.119 25.652)" opacity="0.53"/></g></g><g transform="translate(19 79.936)"><g transform="matrix(1, 0, 0, 1, -12, -72.94)" filter="url(#h)"><rect width="128" height="67" rx="7" transform="translate(12 73)" fill="url(#a)"/></g><rect width="34" height="33" rx="8" transform="translate(14 15.064)" fill="#08f"/><g transform="translate(61.881 14.644)" opacity="0.24"><rect width="49" height="5" rx="2" transform="translate(0.119 0.42)" opacity="0.53"/><rect width="49" height="5" rx="2" transform="translate(0.119 9.42)" opacity="0.53"/><rect width="49" height="5" rx="2" transform="translate(0.119 17.42)" opacity="0.53"/><rect width="28" height="4" rx="2" transform="translate(0.119 26.42)" opacity="0.53"/></g></g></g></g></svg>